<mxfile host="app.diagrams.net" modified="2023-07-20T22:56:55.621Z" agent="Mozilla/5.0 (Windows NT 10.0; Win64; x64) AppleWebKit/537.36 (KHTML, like Gecko) Chrome/114.0.0.0 Safari/537.36 Edg/114.0.1823.82" etag="oLIlcBWKuTK6Aqvqjne1" version="21.6.3" type="github">
  <diagram id="C5RBs43oDa-KdzZeNtuy" name="Page-1">
    <mxGraphModel dx="1179" dy="691" grid="1" gridSize="10" guides="1" tooltips="1" connect="1" arrows="1" fold="1" page="1" pageScale="1" pageWidth="827" pageHeight="1169" math="0" shadow="0">
      <root>
        <mxCell id="WIyWlLk6GJQsqaUBKTNV-0" />
        <mxCell id="WIyWlLk6GJQsqaUBKTNV-1" parent="WIyWlLk6GJQsqaUBKTNV-0" />
        <mxCell id="CK7fYrMbcj9x9MiFOYVX-2" style="edgeStyle=orthogonalEdgeStyle;rounded=0;orthogonalLoop=1;jettySize=auto;html=1;" edge="1" parent="WIyWlLk6GJQsqaUBKTNV-1" source="CK7fYrMbcj9x9MiFOYVX-0" target="CK7fYrMbcj9x9MiFOYVX-1">
          <mxGeometry relative="1" as="geometry" />
        </mxCell>
        <mxCell id="CK7fYrMbcj9x9MiFOYVX-0" value="Login" style="ellipse;whiteSpace=wrap;html=1;aspect=fixed;" vertex="1" parent="WIyWlLk6GJQsqaUBKTNV-1">
          <mxGeometry x="240" y="210" width="80" height="80" as="geometry" />
        </mxCell>
        <mxCell id="CK7fYrMbcj9x9MiFOYVX-8" value="" style="edgeStyle=orthogonalEdgeStyle;rounded=0;orthogonalLoop=1;jettySize=auto;html=1;" edge="1" parent="WIyWlLk6GJQsqaUBKTNV-1" source="CK7fYrMbcj9x9MiFOYVX-1" target="CK7fYrMbcj9x9MiFOYVX-7">
          <mxGeometry relative="1" as="geometry" />
        </mxCell>
        <mxCell id="CK7fYrMbcj9x9MiFOYVX-11" value="ya" style="edgeLabel;html=1;align=center;verticalAlign=middle;resizable=0;points=[];" vertex="1" connectable="0" parent="CK7fYrMbcj9x9MiFOYVX-8">
          <mxGeometry x="-0.1111" y="1" relative="1" as="geometry">
            <mxPoint as="offset" />
          </mxGeometry>
        </mxCell>
        <mxCell id="CK7fYrMbcj9x9MiFOYVX-1" value="kelengkapan input" style="ellipse;whiteSpace=wrap;html=1;aspect=fixed;" vertex="1" parent="WIyWlLk6GJQsqaUBKTNV-1">
          <mxGeometry x="390" y="210" width="80" height="80" as="geometry" />
        </mxCell>
        <mxCell id="CK7fYrMbcj9x9MiFOYVX-5" value="" style="curved=1;endArrow=classic;html=1;rounded=0;exitX=0.635;exitY=-0.026;exitDx=0;exitDy=0;entryX=0.5;entryY=0;entryDx=0;entryDy=0;exitPerimeter=0;" edge="1" parent="WIyWlLk6GJQsqaUBKTNV-1" source="CK7fYrMbcj9x9MiFOYVX-1" target="CK7fYrMbcj9x9MiFOYVX-0">
          <mxGeometry width="50" height="50" relative="1" as="geometry">
            <mxPoint x="380" y="190" as="sourcePoint" />
            <mxPoint x="430" y="140" as="targetPoint" />
            <Array as="points">
              <mxPoint x="430" y="190" />
              <mxPoint x="350" y="150" />
            </Array>
          </mxGeometry>
        </mxCell>
        <mxCell id="CK7fYrMbcj9x9MiFOYVX-6" value="tidak" style="edgeLabel;html=1;align=center;verticalAlign=middle;resizable=0;points=[];" vertex="1" connectable="0" parent="CK7fYrMbcj9x9MiFOYVX-5">
          <mxGeometry x="-0.1656" y="4" relative="1" as="geometry">
            <mxPoint as="offset" />
          </mxGeometry>
        </mxCell>
        <mxCell id="CK7fYrMbcj9x9MiFOYVX-13" value="" style="edgeStyle=orthogonalEdgeStyle;rounded=0;orthogonalLoop=1;jettySize=auto;html=1;" edge="1" parent="WIyWlLk6GJQsqaUBKTNV-1" source="CK7fYrMbcj9x9MiFOYVX-7" target="CK7fYrMbcj9x9MiFOYVX-12">
          <mxGeometry relative="1" as="geometry" />
        </mxCell>
        <mxCell id="CK7fYrMbcj9x9MiFOYVX-21" value="ya" style="edgeLabel;html=1;align=center;verticalAlign=middle;resizable=0;points=[];" vertex="1" connectable="0" parent="CK7fYrMbcj9x9MiFOYVX-13">
          <mxGeometry x="-0.0767" y="-2" relative="1" as="geometry">
            <mxPoint as="offset" />
          </mxGeometry>
        </mxCell>
        <mxCell id="CK7fYrMbcj9x9MiFOYVX-7" value="pencocokan data" style="ellipse;whiteSpace=wrap;html=1;aspect=fixed;" vertex="1" parent="WIyWlLk6GJQsqaUBKTNV-1">
          <mxGeometry x="390" y="350" width="80" height="80" as="geometry" />
        </mxCell>
        <mxCell id="CK7fYrMbcj9x9MiFOYVX-9" value="" style="curved=1;endArrow=classic;html=1;rounded=0;exitX=0;exitY=0.5;exitDx=0;exitDy=0;entryX=0.244;entryY=0.9;entryDx=0;entryDy=0;entryPerimeter=0;" edge="1" parent="WIyWlLk6GJQsqaUBKTNV-1" source="CK7fYrMbcj9x9MiFOYVX-7" target="CK7fYrMbcj9x9MiFOYVX-0">
          <mxGeometry width="50" height="50" relative="1" as="geometry">
            <mxPoint x="340" y="420" as="sourcePoint" />
            <mxPoint x="190" y="420" as="targetPoint" />
            <Array as="points">
              <mxPoint x="340" y="400" />
              <mxPoint x="260" y="360" />
            </Array>
          </mxGeometry>
        </mxCell>
        <mxCell id="CK7fYrMbcj9x9MiFOYVX-10" value="tidak" style="edgeLabel;html=1;align=center;verticalAlign=middle;resizable=0;points=[];" vertex="1" connectable="0" parent="CK7fYrMbcj9x9MiFOYVX-9">
          <mxGeometry x="-0.1656" y="4" relative="1" as="geometry">
            <mxPoint x="-13" y="-16" as="offset" />
          </mxGeometry>
        </mxCell>
        <mxCell id="CK7fYrMbcj9x9MiFOYVX-12" value="cek role" style="ellipse;whiteSpace=wrap;html=1;aspect=fixed;" vertex="1" parent="WIyWlLk6GJQsqaUBKTNV-1">
          <mxGeometry x="390" y="473" width="80" height="80" as="geometry" />
        </mxCell>
        <mxCell id="CK7fYrMbcj9x9MiFOYVX-14" value="tampilan home" style="ellipse;whiteSpace=wrap;html=1;aspect=fixed;" vertex="1" parent="WIyWlLk6GJQsqaUBKTNV-1">
          <mxGeometry x="310" y="563" width="80" height="80" as="geometry" />
        </mxCell>
        <mxCell id="CK7fYrMbcj9x9MiFOYVX-15" value="tampilan admin" style="ellipse;whiteSpace=wrap;html=1;aspect=fixed;" vertex="1" parent="WIyWlLk6GJQsqaUBKTNV-1">
          <mxGeometry x="470" y="563" width="80" height="80" as="geometry" />
        </mxCell>
        <mxCell id="CK7fYrMbcj9x9MiFOYVX-17" value="" style="endArrow=classic;html=1;rounded=0;exitX=1;exitY=1;exitDx=0;exitDy=0;" edge="1" parent="WIyWlLk6GJQsqaUBKTNV-1" source="CK7fYrMbcj9x9MiFOYVX-12" target="CK7fYrMbcj9x9MiFOYVX-15">
          <mxGeometry width="50" height="50" relative="1" as="geometry">
            <mxPoint x="360" y="753" as="sourcePoint" />
            <mxPoint x="410" y="703" as="targetPoint" />
          </mxGeometry>
        </mxCell>
        <mxCell id="CK7fYrMbcj9x9MiFOYVX-19" value="ada" style="edgeLabel;html=1;align=center;verticalAlign=middle;resizable=0;points=[];" vertex="1" connectable="0" parent="CK7fYrMbcj9x9MiFOYVX-17">
          <mxGeometry x="-0.1494" y="1" relative="1" as="geometry">
            <mxPoint as="offset" />
          </mxGeometry>
        </mxCell>
        <mxCell id="CK7fYrMbcj9x9MiFOYVX-18" value="tidak ada" style="endArrow=classic;html=1;rounded=0;exitX=0;exitY=1;exitDx=0;exitDy=0;" edge="1" parent="WIyWlLk6GJQsqaUBKTNV-1" source="CK7fYrMbcj9x9MiFOYVX-12" target="CK7fYrMbcj9x9MiFOYVX-14">
          <mxGeometry width="50" height="50" relative="1" as="geometry">
            <mxPoint x="428" y="583" as="sourcePoint" />
            <mxPoint x="370" y="645" as="targetPoint" />
          </mxGeometry>
        </mxCell>
      </root>
    </mxGraphModel>
  </diagram>
</mxfile>
